<?xml version="1.0" encoding="UTF-8" standalone="no"?>
<!-- Created with Inkscape (http://www.inkscape.org/) -->

<svg
   xmlns:dc="http://purl.org/dc/elements/1.1/"
   xmlns:cc="http://creativecommons.org/ns#"
   xmlns:rdf="http://www.w3.org/1999/02/22-rdf-syntax-ns#"
   xmlns:svg="http://www.w3.org/2000/svg"
   xmlns="http://www.w3.org/2000/svg"
   xmlns:sodipodi="http://sodipodi.sourceforge.net/DTD/sodipodi-0.dtd"
   xmlns:inkscape="http://www.inkscape.org/namespaces/inkscape"
   width="48"
   height="48"
   id="svg5453"
   version="1.1"
   inkscape:version="0.48.5 r10040"
   sodipodi:docname="folder-videos.svg"
   viewBox="0 0 48 48">
  <sodipodi:namedview
     id="base"
     pagecolor="#ffffff"
     bordercolor="#666666"
     borderopacity="1.0"
     inkscape:pageopacity="0"
     inkscape:pageshadow="2"
     inkscape:zoom="16.000001"
     inkscape:cx="-9.2767536"
     inkscape:cy="22.660426"
     inkscape:document-units="px"
     inkscape:current-layer="layer1"
     showgrid="true"
     fit-margin-top="0"
     fit-margin-left="0"
     fit-margin-right="0"
     fit-margin-bottom="0"
     inkscape:window-width="1440"
     inkscape:window-height="808"
     inkscape:window-x="0"
     inkscape:window-y="28"
     inkscape:window-maximized="1"
     inkscape:showpageshadow="false"
     borderlayer="true"
     showguides="true">
    <inkscape:grid
       originy="-7.9999916"
       originx="-8.0000133"
       id="grid4115"
       type="xygrid" />
    <sodipodi:guide
       id="guide4157"
       orientation="37.999969,0"
       position="5,43" />
    <sodipodi:guide
       id="guide4159"
       orientation="0,38"
       position="5,5.0000305" />
    <sodipodi:guide
       id="guide4161"
       orientation="-37.999969,0"
       position="43,5.0000305" />
    <sodipodi:guide
       id="guide4163"
       orientation="0,-38"
       position="43,43" />
    <sodipodi:guide
       id="guide4165"
       orientation="47.999969,0"
       position="0,48" />
    <sodipodi:guide
       id="guide4167"
       orientation="0,48"
       position="0,3.0517578e-05" />
    <sodipodi:guide
       id="guide4169"
       orientation="-47.999969,0"
       position="48,3.0517578e-05" />
    <sodipodi:guide
       id="guide4171"
       orientation="0,-48"
       position="48,48" />
    <sodipodi:guide
       id="guide4166"
       orientation="21.999969,0"
       position="13.999987,29.000008" />
    <sodipodi:guide
       id="guide4168"
       orientation="0,22"
       position="33.999987,10.000008" />
    <sodipodi:guide
       id="guide4170"
       orientation="-21.999969,0"
       position="33.999987,13.000008" />
    <sodipodi:guide
       id="guide4172"
       orientation="0,-22"
       position="13.999987,30.000008" />
    <sodipodi:guide
       id="guide4174"
       orientation="15.999969,0"
       position="16.000002,27.999996" />
    <sodipodi:guide
       id="guide4176"
       orientation="0,16"
       position="16.000002,12.000026" />
    <sodipodi:guide
       id="guide4178"
       orientation="-15.999969,0"
       position="32.000002,12.000026" />
    <sodipodi:guide
       id="guide4180"
       orientation="0,-16"
       position="32.000002,27.999996" />
    <sodipodi:guide
       id="guide4208"
       orientation="7.9999695,0"
       position="16.000002,27.999996" />
    <sodipodi:guide
       id="guide4210"
       orientation="0,8"
       position="19.999987,20.000008" />
    <sodipodi:guide
       id="guide4212"
       orientation="-7.9999695,0"
       position="24.000002,20.000026" />
    <sodipodi:guide
       id="guide4214"
       orientation="0,-8"
       position="24.000002,27.999996" />
  </sodipodi:namedview>
  <defs
     id="defs5455" />
  <metadata
     id="metadata5458">
    <rdf:RDF>
      <cc:Work
         rdf:about="">
        <dc:format>image/svg+xml</dc:format>
        <dc:type
           rdf:resource="http://purl.org/dc/dcmitype/StillImage" />
        <dc:title />
      </cc:Work>
    </rdf:RDF>
  </metadata>
  <g
     transform="translate(-392.57144,-491.798)"
     id="layer1"
     inkscape:groupmode="layer"
     inkscape:label="Capa 1">
    <path
       sodipodi:nodetypes="sccscsccscccscs"
       inkscape:connector-curvature="0"
       style="opacity:1;fill:#7a7a7a;fill-opacity:1;stroke:none;stroke-width:3.56737041px;stroke-linecap:butt;stroke-linejoin:miter;stroke-miterlimit:4;stroke-dasharray:none;stroke-dashoffset:0;stroke-opacity:1"
       d="m 412.67144,496.798 c 5,0 5.9,3 5.9,3 l 18,0 c 0,0 1,0 1,1 l 0,2 0,25 c 0,1 -1,1 -1,1 l -40,0 c 0,0 -1,0 -1,-1 l 0,-24 0,-2 0,-1 0,-3 c 0,-1 1,-1 1,-1 z"
       id="folderTab" />
    <path
       id="folderPaper"
       d="m 397.57144,501.798 38,0 0,24.99999 -38,0 z"
       style="opacity:1;fill:#ffffff;fill-opacity:1;stroke:none;stroke-width:3.56737041px;stroke-linecap:butt;stroke-linejoin:miter;stroke-miterlimit:4;stroke-dasharray:none;stroke-dashoffset:0;stroke-opacity:1" />
    <path
       sodipodi:nodetypes="sccscsccscccscs"
       inkscape:connector-curvature="0"
       transform="translate(392.57144,491.798)"
       id="folderFront"
       d="m 30,12 c -5,0 -6,3 -6,3 L 2,15 c 0,0 -1,0 -1,1 l 0,2 0,24 c 0,1 1,1 1,1 l 44,0 c 0,0 1,0 1,-1 l 0,-24 0,-2 0,-1 0,-2 c 0,-1 -1,-1 -1,-1 z"
       style="opacity:1;fill:#a3a3a3;fill-opacity:1;stroke:none;stroke-width:3.56737041px;stroke-linecap:butt;stroke-linejoin:miter;stroke-miterlimit:4;stroke-dasharray:none;stroke-dashoffset:0;stroke-opacity:1" />
    <path
       inkscape:connector-curvature="0"
       id="folderShadow"
       transform="translate(392.57144,491.798)"
       d="m 1,42 c 0,1 1,1 1,1 l 44,0 c 0,0 1,0 1,-1 L 1,42 Z"
       style="opacity:0.25;fill:#000000;fill-opacity:1;stroke:none;stroke-width:3.56737041px;stroke-linecap:butt;stroke-linejoin:miter;stroke-miterlimit:4;stroke-dasharray:none;stroke-dashoffset:0;stroke-opacity:1" />
    <rect
       y="491.79794"
       x="385.57141"
       height="5"
       width="5"
       id="Color_A"
       style="color:#000000;clip-rule:nonzero;display:inline;overflow:visible;visibility:visible;opacity:1;isolation:auto;mix-blend-mode:normal;color-interpolation:sRGB;color-interpolation-filters:linearRGB;solid-color:#000000;solid-opacity:1;fill:#7a7a7a;fill-opacity:1;fill-rule:nonzero;stroke:none;stroke-width:1;stroke-linecap:butt;stroke-linejoin:miter;stroke-miterlimit:4;stroke-dasharray:none;stroke-dashoffset:0;stroke-opacity:1;color-rendering:auto;image-rendering:auto;shape-rendering:auto;text-rendering:auto;enable-background:accumulate" />
    <rect
       y="499.79794"
       x="385.57141"
       height="5"
       width="5"
       id="Color_B"
       style="color:#000000;clip-rule:nonzero;display:inline;overflow:visible;visibility:visible;opacity:1;isolation:auto;mix-blend-mode:normal;color-interpolation:sRGB;color-interpolation-filters:linearRGB;solid-color:#000000;solid-opacity:1;fill:#a3a3a3;fill-opacity:1;fill-rule:nonzero;stroke:none;stroke-width:1;stroke-linecap:butt;stroke-linejoin:miter;stroke-miterlimit:4;stroke-dasharray:none;stroke-dashoffset:0;stroke-opacity:1;color-rendering:auto;image-rendering:auto;shape-rendering:auto;text-rendering:auto;enable-background:accumulate" />
    <rect
       y="507.798"
       x="385.57144"
       height="5"
       width="5"
       id="rect4157-8"
       style="color:#000000;clip-rule:nonzero;display:inline;overflow:visible;visibility:visible;opacity:1;isolation:auto;mix-blend-mode:normal;color-interpolation:sRGB;color-interpolation-filters:linearRGB;solid-color:#000000;solid-opacity:1;fill:#666666;fill-opacity:1;fill-rule:nonzero;stroke:none;stroke-width:1;stroke-linecap:butt;stroke-linejoin:miter;stroke-miterlimit:4;stroke-dasharray:none;stroke-dashoffset:0;stroke-opacity:1;color-rendering:auto;image-rendering:auto;shape-rendering:auto;text-rendering:auto;enable-background:accumulate" />
    <path
       id="rect4241"
       transform="translate(392.57144,491.798)"
       d="M 16 20 L 16 36 L 32 36 L 32 20 L 16 20 z M 18 22 L 20 22 L 20 24 L 18 24 L 18 22 z M 21 22 L 27 22 L 27 27 L 21 27 L 21 22 z M 28 22 L 30 22 L 30 24 L 28 24 L 28 22 z M 18 27 L 20 27 L 20 29 L 18 29 L 18 27 z M 28 27 L 30 27 L 30 29 L 28 29 L 28 27 z M 21 29 L 27 29 L 27 34 L 21 34 L 21 29 z M 18 32 L 20 32 L 20 34 L 18 34 L 18 32 z M 28 32 L 30 32 L 30 34 L 28 34 L 28 32 z "
       style="opacity:0.99999999;fill:#666666;fill-opacity:1;stroke:none" />
  </g>
</svg>
